<?xml version="1.0" standalone="no"?>
<!DOCTYPE svg PUBLIC "-//W3C//DTD SVG 20010904//EN"
 "http://www.w3.org/TR/2001/REC-SVG-20010904/DTD/svg10.dtd">
<svg version="1.0" xmlns="http://www.w3.org/2000/svg"
 width="183.000000pt" height="183.000000pt" viewBox="0 0 183.000000 183.000000"
 preserveAspectRatio="xMidYMid meet">
<metadata>
Created by potrace 1.11, written by Peter Selinger 2001-2013
</metadata>
<g transform="translate(0.000000,183.000000) scale(0.100000,-0.100000)"
fill="#000000" stroke="none">
<path d="M1307 1775 c-93 -63 -223 -96 -539 -135 -400 -49 -605 -234 -572
-513 l10 -82 -43 -45 c-24 -24 -58 -73 -76 -109 -27 -55 -31 -75 -32 -140 0
-63 5 -85 27 -127 70 -134 226 -203 456 -204 102 0 103 0 97 -22 -13 -41 -57
-116 -84 -142 -24 -23 -29 -24 -67 -14 -47 13 -75 7 -129 -26 l-40 -25 180 0
c151 0 189 3 235 19 30 10 56 18 57 17 1 -1 -14 -23 -32 -49 -33 -45 -36 -46
-67 -37 -18 5 -46 9 -62 9 -31 0 -136 -57 -136 -73 0 -5 92 -7 213 -5 196 4
217 6 277 29 131 50 224 130 278 239 24 49 27 66 27 162 l0 107 30 -7 c17 -4
64 -7 105 -7 60 1 87 6 133 27 72 34 159 115 192 181 44 89 48 87 -132 87
l-158 0 35 27 c57 44 118 110 140 153 29 58 27 70 -16 70 l-37 0 48 42 c48 42
106 123 119 166 7 19 4 22 -23 22 l-31 0 47 43 c67 62 93 123 93 224 l0 82
-62 -26 c-34 -13 -100 -33 -147 -43 -84 -18 -272 -43 -278 -36 -2 1 4 19 12
39 15 37 21 158 8 156 -5 -1 -30 -16 -56 -34z m489 -156 c-10 -61 -52 -143
-91 -177 -18 -17 -59 -39 -90 -51 -53 -20 -75 -21 -398 -21 -377 0 -423 -5
-542 -59 -37 -17 -66 -33 -64 -35 2 -2 38 6 79 17 70 20 104 21 528 25 280 2
452 0 452 -6 0 -22 -96 -115 -144 -140 l-51 -27 -350 -6 c-359 -6 -386 -9
-468 -51 -48 -24 -44 -30 8 -16 53 15 915 24 915 10 0 -24 -105 -123 -158
-149 l-57 -28 -325 -5 c-296 -5 -329 -7 -365 -25 l-40 -20 543 -3 c298 -1 542
-4 542 -7 0 -2 -5 -15 -11 -29 -16 -35 -67 -50 -168 -50 -83 0 -84 0 -50 -14
19 -8 63 -15 97 -16 l64 -1 -39 -33 c-36 -32 -41 -34 -90 -28 -29 3 -76 15
-104 26 -28 12 -54 19 -56 16 -6 -6 57 -53 87 -65 20 -8 13 -10 -41 -10 -87
-1 -161 21 -179 54 -13 25 -44 34 -55 16 -3 -5 8 -31 24 -57 68 -107 59 -250
-22 -358 -13 -18 -14 -17 -21 15 l-8 34 -10 -25 c-45 -110 -51 -118 -100 -145
l-50 -27 13 23 c14 28 29 99 20 99 -3 0 -19 -23 -36 -51 -48 -81 -75 -99 -151
-99 -35 0 -64 3 -64 6 0 3 11 20 24 37 29 38 98 168 114 214 10 31 14 33 56
33 26 0 46 -2 46 -5 0 -3 -7 -22 -15 -42 -22 -51 -20 -53 29 -37 129 44 193
182 125 268 -28 36 -64 53 -140 66 -57 10 -66 15 -78 41 -19 44 -73 66 -233
93 -160 28 -219 49 -265 94 -48 49 -67 98 -71 187 -9 189 98 325 314 405 139
50 249 69 464 80 107 5 222 12 255 15 101 10 277 43 335 64 75 26 73 26 66
-20z m-1451 -696 c47 -95 129 -143 290 -168 180 -29 205 -36 233 -62 l27 -24
-25 4 c-14 3 -65 9 -114 13 -71 5 -88 4 -84 -6 2 -8 13 -18 24 -24 10 -6 32
-21 47 -33 34 -27 54 -29 85 -7 19 13 35 14 113 4 105 -12 150 -28 173 -61 28
-41 15 -100 -33 -143 -17 -15 -21 -16 -21 -4 0 8 -8 22 -17 30 -15 14 -65 17
-313 21 -230 4 -309 8 -360 21 -72 19 -100 36 -58 36 58 0 34 18 -33 25 -63 6
-74 11 -107 44 l-36 36 74 5 75 5 -43 13 c-27 8 -63 32 -94 62 -49 48 -51 50
-44 92 8 51 14 58 29 38 38 -48 44 -43 39 33 -5 84 6 104 85 157 l48 31 7 -43
c4 -23 19 -66 33 -95z"/>
<path d="M885 590 c-10 -11 -13 -20 -8 -20 13 0 38 29 31 35 -3 3 -13 -4 -23
-15z"/>
</g>
</svg>
